<svg viewBox="0 0 32 32" fill="none" xmlns="http://www.w3.org/2000/svg">
<path d="M24.6667 28.6667C26.6116 28.6667 28.4768 27.8941 29.8521 26.5189C31.2274 25.1436 32 23.2783 32 21.3334C32 19.3885 31.2274 17.5232 29.8521 16.148C28.4768 14.7727 26.6116 14.0001 24.6667 14.0001C24.4553 14.0001 24.248 14.0141 24.0413 14.0321C24.4049 10.8243 25.4962 7.74197 27.232 5.02008C27.2951 4.91917 27.33 4.80321 27.3331 4.68425C27.3362 4.56529 27.3075 4.44766 27.2498 4.34357C27.1921 4.23948 27.1076 4.15274 27.005 4.09234C26.9025 4.03194 26.7857 4.00008 26.6667 4.00008H25.3333C25.2429 4.00006 25.1534 4.01843 25.0704 4.05407C24.9873 4.08972 24.9123 4.14189 24.85 4.20742C21.4213 7.81408 17.3333 13.7127 17.3333 21.3334C17.3356 23.2776 18.109 25.1416 19.4838 26.5163C20.8585 27.8911 22.7224 28.6645 24.6667 28.6667Z" fill="#09D698"/>
<path d="M7.33366 28.6667C9.27858 28.6667 11.1438 27.8941 12.5191 26.5189C13.8944 25.1436 14.667 23.2783 14.667 21.3334C14.667 19.3885 13.8944 17.5232 12.5191 16.148C11.1438 14.7727 9.27858 14.0001 7.33366 14.0001C7.12233 14.0001 6.91499 14.0141 6.70833 14.0321C7.07185 10.8243 8.16315 7.74197 9.89899 5.02008C9.96206 4.91917 9.99697 4.80321 10.0001 4.68425C10.0032 4.56529 9.97444 4.44766 9.91676 4.34357C9.85907 4.23948 9.77457 4.15274 9.67203 4.09234C9.5695 4.03194 9.45266 4.00008 9.33366 4.00008H8.00033C7.90991 4.00006 7.82044 4.01843 7.73735 4.05407C7.65426 4.08972 7.57929 4.14189 7.51699 4.20742C4.08833 7.81408 0.000325203 13.7127 0.000325203 21.3334C0.00261879 23.2776 0.775971 25.1416 2.15074 26.5163C3.52551 27.8911 5.38944 28.6645 7.33366 28.6667Z" fill="#09D698"/>
</svg>
